<svg width="37" height="35" viewBox="0 0 37 35" fill="none" xmlns="http://www.w3.org/2000/svg">
<path fill-rule="evenodd" clip-rule="evenodd" d="M17.3302 4.17978L7.39908 13.7804V31.3155H11.0986V27.6311C11.0986 24.578 13.5823 22.1044 16.6479 22.1044H20.3475C23.413 22.1044 25.8968 24.578 25.8968 27.6311V31.3155H29.5963V13.776L19.6698 4.17978C18.9863 3.51953 18.0137 3.51953 17.3302 4.17978ZM33.2958 17.3524L33.8619 17.8996C34.5949 18.6082 35.766 18.5909 36.4775 17.8608C37.1891 17.1307 37.1716 15.9644 36.4386 15.2558L22.2463 1.53575C20.1275 -0.511749 16.8728 -0.511998 14.754 1.5355L0.561393 15.2558C-0.171656 15.9644 -0.189082 17.1307 0.522469 17.8608C1.23402 18.5909 2.4051 18.6082 3.13815 17.8996L3.69954 17.3569V31.3155C3.69954 33.3508 5.35548 35 7.39908 35H11.0986C13.1422 35 14.7982 33.3508 14.7982 31.3155V27.6311C14.7982 26.6128 15.6255 25.7888 16.6479 25.7888H20.3475C21.3699 25.7888 22.1972 26.6128 22.1972 27.6311V31.3155C22.1972 33.3508 23.8532 35 25.8968 35H29.5963C31.6399 35 33.2958 33.3508 33.2958 31.3155V17.3524Z" fill="url(#paint0_linear_466_162189)"/>
<defs>
<linearGradient id="paint0_linear_466_162189" x1="10.9103" y1="-9.45946" x2="36.876" y2="44.9916" gradientUnits="userSpaceOnUse">
<stop stop-color="#A4A4A4"/>
</linearGradient>
</defs>
</svg>
