<svg width="40" height="39" viewBox="0 0 40 39" fill="none" xmlns="http://www.w3.org/2000/svg">
<path fill-rule="evenodd" clip-rule="evenodd" d="M20 3.81719C11.1634 3.81719 4 10.6532 4 19.0859C4 27.5187 11.1634 34.3547 20 34.3547C28.8366 34.3547 36 27.5187 36 19.0859C36 10.6532 28.8366 3.81719 20 3.81719ZM0 19.0859C0 8.54507 8.9543 0 20 0C31.0457 0 40 8.54507 40 19.0859C40 29.6268 31.0457 38.1719 20 38.1719C8.9543 38.1719 0 29.6268 0 19.0859Z" fill="#A4A4A4"/>
<path fill-rule="evenodd" clip-rule="evenodd" d="M20 11.452C18.8954 11.452 18 12.3065 18 13.3606C18 14.4146 18.8954 15.2691 20 15.2691C21.1046 15.2691 22 14.4146 22 13.3606C22 12.3065 21.1046 11.452 20 11.452ZM14 13.3606C14 10.1983 16.6863 7.63477 20 7.63477C23.3137 7.63477 26 10.1983 26 13.3606C26 16.5228 23.3137 19.0863 20 19.0863C16.6863 19.0863 14 16.5228 14 13.3606Z" fill="#A4A4A4"/>
<path fill-rule="evenodd" clip-rule="evenodd" d="M20 26.7203C15.9175 26.7203 12.4536 29.7131 12.0502 33.589C11.941 34.6379 10.9615 35.4038 9.86234 35.2996C8.76318 35.1954 7.96062 34.2607 8.06978 33.2117C8.67643 27.3824 13.8625 22.9031 20 22.9031C26.1375 22.9031 31.3236 27.3824 31.9302 33.2117C32.0394 34.2607 31.2368 35.1954 30.1376 35.2996C29.0385 35.4038 28.0589 34.6379 27.9498 33.589C27.5464 29.7131 24.0825 26.7203 20 26.7203Z" fill="#A4A4A4"/>
</svg>
