<svg width="29" height="28" viewBox="0 0 29 28" fill="none" xmlns="http://www.w3.org/2000/svg">
<path d="M15.5656 28V24.8889H18.6767V28H15.5656ZM12.4545 24.8889V17.1111H15.5656V24.8889H12.4545ZM24.8989 20.2222V14H28.01V20.2222H24.8989ZM21.7878 14V10.8889H24.8989V14H21.7878ZM3.12112 17.1111V14H6.23223V17.1111H3.12112ZM0.0100098 14V10.8889H3.12112V14H0.0100098ZM14.01 3.11111V0H17.1211V3.11111H14.01ZM1.95445 7.38889H7.3989V1.94444H1.95445V7.38889ZM0.0100098 9.33333V0H9.34334V9.33333H0.0100098ZM1.95445 26.0556H7.3989V20.6111H1.95445V26.0556ZM0.0100098 28V18.6667H9.34334V28H0.0100098ZM20.6211 7.38889H26.0656V1.94444H20.6211V7.38889ZM18.6767 9.33333V0H28.01V9.33333H18.6767ZM21.7878 28V23.3333H18.6767V20.2222H24.8989V24.8889H28.01V28H21.7878ZM15.5656 17.1111V14H21.7878V17.1111H15.5656ZM9.34334 17.1111V14H6.23223V10.8889H15.5656V14H12.4545V17.1111H9.34334ZM10.8989 9.33333V3.11111H14.01V6.22222H17.1211V9.33333H10.8989ZM3.51001 5.83333V3.5H5.84334V5.83333H3.51001ZM3.51001 24.5V22.1667H5.84334V24.5H3.51001ZM22.1767 5.83333V3.5H24.51V5.83333H22.1767Z" fill="url(#paint0_linear_466_162188)"/>
<defs>
<linearGradient id="paint0_linear_466_162188" x1="14.01" y1="-5.21242e-07" x2="31.5" y2="31.5" gradientUnits="userSpaceOnUse">
<stop stop-color="#00BCFF"/>
<stop offset="1" stop-color="#89D329"/>
</linearGradient>
</defs>
</svg>
